<svg version="1.1" viewBox="0 0 300 300" width="300" height="300" xmlns="http://www.w3.org/2000/svg"><defs><clipPath id="clip-1"><rect x="0" y="0" transform="scale(0.14648,0.14648)" width="2048" height="2048" fill="none"/></clipPath></defs><g clip-path="url(#clip-1)" fill="none" fill-rule="nonzero" stroke="none" stroke-width="1" stroke-linecap="butt" stroke-linejoin="miter" stroke-miterlimit="10" stroke-dasharray="" stroke-dashoffset="0"><path d="M149.96631,101.81382c2.58105,-2.56597 5.21045,-5.27227 8.06836,-7.51787c8.71582,-6.79995 19.46484,-10.47231 30.52002,-10.42705c13.16748,0.00264 25.78564,5.27974 35.03467,14.65225c9.25781,9.31714 14.38623,21.96299 14.23242,35.09736c-0.04248,11.01548 -3.81445,21.69155 -10.70215,30.28872c-2.44336,3.04248 -4.95117,5.46094 -7.70215,8.21045l-8.73633,8.73047l-23.41406,23.39063c-0.49072,0.4834 -1.12939,1.12354 -1.6377,1.55859c-0.30322,0.33838 -0.61816,0.66504 -0.94336,0.98291c-9.50684,9.30908 -22.35791,14.40088 -35.66016,14.12988c-14.1583,-0.17139 -25.90708,-6.05273 -35.65723,-16.03857c-1.06685,-0.87158 -3.08657,-3.00293 -4.15063,-4.06641l-7.54805,-7.55273l-24.30791,-24.28857c-9.95332,-9.98291 -15.31172,-21.8335 -15.2647,-36.08921c0.05273,-13.10479 5.348,-25.64341 14.70454,-34.81919c9.33706,-9.21313 21.96489,-14.31885 35.0814,-14.18438c10.84014,0.0646 21.35537,3.70898 29.9105,10.36641c3.0145,2.36235 5.44937,4.85127 8.12417,7.56724z" fill="#faffff"/><path d="M149.96631,101.81382c2.58105,-2.56597 5.21045,-5.27227 8.06836,-7.51787c8.71582,-6.79995 19.46484,-10.47231 30.52002,-10.42705c13.16748,0.00264 25.78564,5.27974 35.03467,14.65225c9.25781,9.31714 14.38623,21.96299 14.23242,35.09736c-0.04248,11.01548 -3.81445,21.69155 -10.70215,30.28872c-2.44336,3.04248 -4.95117,5.46094 -7.70215,8.21045l-8.73633,8.73047l-23.41406,23.39063c-0.49072,0.4834 -1.12939,1.12354 -1.6377,1.55859c0.27539,-0.52734 1.94678,-2.42871 2.4082,-2.99121c1.4502,-1.76074 2.77588,-3.49512 3.95508,-5.44629c5.31006,-8.78613 7.87207,-18.91406 7.08398,-29.16797c-0.14062,-1.82373 -0.27686,-4.11914 -0.74121,-5.90332l0.03662,-0.09668c-3.38379,-14.86963 -8.31152,-20.30098 -18.65332,-30.62769l-14.23828,-14.24341l-0.07324,-0.01333l-15.43945,15.427c-4.80234,-4.55303 -10.81729,-10.66216 -15.41455,-15.43066c0.6813,-0.87114 3.04189,-3.1229 3.93193,-4.00957l7.23516,-7.20542c1.28262,-1.27866 3.04629,-2.95591 4.19766,-4.28408z" fill="#48d391"/><path d="M165.48047,117.3208c0.73535,-0.9564 1.75488,-1.83926 2.59131,-2.71743c4.45166,-4.67593 10.20703,-7.84072 16.69189,-8.67979c7.3623,-0.99038 14.8125,1.03359 20.66162,5.61299c5.78027,4.50103 9.50977,11.13545 10.35205,18.41309c0.88916,7.23838 -1.15723,14.53154 -5.68359,20.25103c-1.69922,2.14307 -4.4165,4.74609 -6.4292,6.72656c-1.60547,1.58057 -3.66504,3.79248 -5.29248,5.26465c-3.38379,-14.86963 -8.31152,-20.30098 -18.65332,-30.62769z" fill="#faffff"/><path d="M149.91797,101.80474l0.04834,0.00908c5.06104,5.15171 10.49414,10.30488 15.44092,15.49365l-15.43945,15.427c-4.80234,-4.55303 -10.81729,-10.66216 -15.41455,-15.43066c0.6813,-0.87114 3.04189,-3.1229 3.93193,-4.00957l7.23516,-7.20542c1.28262,-1.27866 3.04629,-2.95591 4.19766,-4.28408z" fill="#15ac80"/><path d="M113.36865,204.87158c-1.06685,-0.87158 -3.08657,-3.00293 -4.15063,-4.06641l-7.54805,-7.55273l-24.30791,-24.28857c-9.95332,-9.98291 -15.31172,-21.8335 -15.2647,-36.08921c0.05273,-13.10479 5.348,-25.64341 14.70454,-34.81919c9.33706,-9.21313 21.96489,-14.31885 35.0814,-14.18438c10.84014,0.0646 21.35537,3.70898 29.9105,10.36641c3.0145,2.36235 5.44937,4.85127 8.12417,7.56724c-1.15137,1.32817 -2.91504,3.00542 -4.19766,4.28408l-7.23516,7.20542c-0.89004,0.88667 -3.25063,3.13843 -3.93193,4.00957l-0.06738,-0.00366l-12.64102,12.62109c-7.56489,7.55859 -12.77271,12.06855 -17.16226,22.12515c-0.9186,2.12109 -1.66787,4.30957 -2.24077,6.54785c-0.21592,0.81152 -0.68892,2.90479 -0.93472,3.58447l0.05347,0.10254c-2.61812,14.02002 0.76392,28.35059 9.45747,39.45557c0.57466,0.73389 2.02793,2.36426 2.35063,3.13477z" fill="#4980c6"/><path d="M101.50708,162.17871c-8.86406,-9.31494 -17.78818,-14.86084 -17.56787,-29.46255c0.1229,-7.40479 3.23394,-14.44556 8.62617,-19.52197c5.31372,-5.03188 12.41851,-7.73057 19.73291,-7.49561c9.88491,0.25591 15.78076,4.81509 22.18755,11.60156l-12.64102,12.62109c-7.56489,7.55859 -12.77271,12.06855 -17.16226,22.12515c-0.9186,2.12109 -1.66787,4.30957 -2.24077,6.54785c-0.21592,0.81152 -0.68892,2.90479 -0.93472,3.58447z" fill="#faffff"/><path d="M101.56055,162.28125c7.11797,6.77197 14.04961,14.21631 21.11616,21.07617c1.14419,1.11035 6.3709,6.57715 7.2334,7.05176c1.54146,1.3623 3.10488,2.8916 4.81348,4.0415c4.86812,3.27686 10.95732,4.93213 16.79839,4.55859c7.3916,-0.47168 13.08398,-3.32812 18.30615,-8.43604c1.08838,-0.67969 6.35449,-6.20801 7.63184,-7.44434c6.98145,-6.75732 13.84131,-14.17676 20.87549,-20.84033c0.46436,1.78418 0.60059,4.07959 0.74121,5.90332c0.78809,10.25391 -1.77393,20.38184 -7.08398,29.16797c-1.1792,1.95117 -2.50488,3.68555 -3.95508,5.44629c-0.46143,0.5625 -2.13281,2.46387 -2.4082,2.99121c-0.30322,0.33838 -0.61816,0.66504 -0.94336,0.98291c-9.50684,9.30908 -22.35791,14.40088 -35.66016,14.12988c-14.1583,-0.17139 -25.90708,-6.05273 -35.65723,-16.03857c-0.32271,-0.77051 -1.77598,-2.40088 -2.35063,-3.13477c-8.69355,-11.10498 -12.07559,-25.43555 -9.45747,-39.45557z" fill="#15ac80"/><path d="M134.48584,117.30015l0.06738,0.00366c4.59727,4.76851 10.61221,10.87764 15.41455,15.43066l0.02197,0.05493c-1.60254,1.27251 -6.07339,5.97041 -7.75371,7.65483l-7.53223,7.53428c-2.82363,2.81104 -5.73003,5.4624 -7.8873,8.8374c-2.21836,3.48926 -3.61729,7.43408 -4.09204,11.5415c-0.91787,8.0083 1.49458,14.95459 6.4623,21.15967c0.23921,0.29883 0.48018,0.59619 0.72334,0.89209c-0.8625,-0.47461 -6.08921,-5.94141 -7.2334,-7.05176c-7.06655,-6.85986 -13.99819,-14.3042 -21.11616,-21.07617l-0.05347,-0.10254c0.2458,-0.67969 0.7188,-2.77295 0.93472,-3.58447c0.5729,-2.23828 1.32217,-4.42676 2.24077,-6.54785c4.38955,-10.05659 9.59736,-14.56655 17.16226,-22.12515z" fill="#48d391"/><path d="M165.40723,117.30747l0.07324,0.01333l14.23828,14.24341c10.3418,10.32671 15.26953,15.75806 18.65332,30.62769l-0.03662,0.09668c-7.03418,6.66357 -13.89404,14.08301 -20.87549,20.84033c-1.27734,1.23633 -6.54346,6.76465 -7.63184,7.44434c4.83105,-5.69238 7.68164,-11.63965 7.55859,-19.2583c-0.20508,-12.63867 -6.99609,-18.32666 -15.23437,-26.39297c-4.03857,-3.95449 -8.06543,-8.17969 -12.1626,-12.13257l-0.02197,-0.05493z" fill="#4980c6"/></g></svg>
